<?xml version="1.0" encoding="UTF-8"?>
<svg xmlns="http://www.w3.org/2000/svg" xmlns:xlink="http://www.w3.org/1999/xlink" width="111pt" height="79pt" viewBox="0 0 111 79" version="1.1">
<defs>
<filter id="alpha" filterUnits="objectBoundingBox" x="0%" y="0%" width="100%" height="100%">
  <feColorMatrix type="matrix" in="SourceGraphic" values="0 0 0 0 1 0 0 0 0 1 0 0 0 0 1 0 0 0 1 0"/>
</filter>
<mask id="mask0">
  <g filter="url(#alpha)">
<rect x="0" y="0" width="111" height="79" style="fill:rgb(0%,0%,0%);fill-opacity:0.901961;stroke:none;"/>
  </g>
</mask>
<clipPath id="clip1">
  <rect x="0" y="0" width="111" height="79"/>
</clipPath>
<g id="surface5" clip-path="url(#clip1)">
<path style=" stroke:none;fill-rule:nonzero;fill:rgb(91.764706%,33.333333%,55.294118%);fill-opacity:1;" d="M 57.828125 38.476562 L 28 36.214844 C 25.105469 35.996094 22.578125 38.179688 22.359375 41.089844 L 20.113281 71.058594 C 19.894531 73.96875 22.066406 76.503906 24.960938 76.726562 L 54.789062 78.984375 C 57.683594 79.203125 60.207031 77.023438 60.425781 74.113281 L 62.679688 44.148438 C 62.898438 41.234375 60.726562 38.695312 57.828125 38.476562 Z M 51.574219 61.058594 L 43.800781 60.472656 L 43.21875 68.214844 L 37.964844 67.816406 L 38.546875 60.066406 L 30.816406 59.476562 L 31.210938 54.199219 L 38.941406 54.785156 L 39.527344 46.996094 L 44.78125 47.394531 L 44.195312 55.183594 L 51.988281 55.753906 Z M 51.574219 61.058594 "/>
</g>
<mask id="mask1">
  <g filter="url(#alpha)">
<rect x="0" y="0" width="111" height="79" style="fill:rgb(0%,0%,0%);fill-opacity:0.901961;stroke:none;"/>
  </g>
</mask>
<clipPath id="clip2">
  <rect x="0" y="0" width="111" height="79"/>
</clipPath>
<g id="surface8" clip-path="url(#clip2)">
<path style=" stroke:none;fill-rule:nonzero;fill:rgb(26.27451%,55.294118%,80%);fill-opacity:1;" d="M 41.828125 6.308594 L 12.558594 0.113281 C 9.714844 -0.488281 6.925781 1.339844 6.328125 4.195312 L 0.171875 33.601562 C -0.425781 36.457031 1.394531 39.261719 4.234375 39.863281 L 33.507812 46.058594 C 36.347656 46.660156 39.136719 44.832031 39.738281 41.976562 L 45.902344 12.566406 C 46.1875 11.195312 45.921875 9.761719 45.15625 8.589844 C 44.390625 7.414062 43.195312 6.59375 41.828125 6.308594 Z M 22.824219 13.472656 C 23.484375 13.039062 24.289062 12.890625 25.0625 13.0625 C 26.675781 13.40625 27.710938 15 27.371094 16.625 C 27.03125 18.25 25.441406 19.289062 23.828125 18.945312 C 23.03125 18.796875 22.339844 18.3125 21.921875 17.617188 C 21.492188 16.964844 21.34375 16.164062 21.507812 15.398438 C 21.652344 14.597656 22.132812 13.898438 22.824219 13.472656 Z M 23.152344 32.65625 C 22.480469 33.101562 21.65625 33.253906 20.867188 33.082031 C 20.082031 32.910156 19.394531 32.429688 18.960938 31.75 C 18.53125 31.113281 18.375 30.328125 18.527344 29.574219 C 18.671875 28.746094 19.160156 28.023438 19.871094 27.582031 C 21.265625 26.691406 23.113281 27.085938 24.019531 28.472656 C 24.464844 29.140625 24.625 29.964844 24.460938 30.753906 C 24.296875 31.539062 23.828125 32.230469 23.152344 32.667969 Z M 32.667969 27.800781 L 12.296875 23.488281 L 13.347656 18.476562 L 33.71875 22.789062 Z M 32.667969 27.800781 "/>
</g>
<mask id="mask2">
  <g filter="url(#alpha)">
<rect x="0" y="0" width="111" height="79" style="fill:rgb(0%,0%,0%);fill-opacity:0.901961;stroke:none;"/>
  </g>
</mask>
<clipPath id="clip3">
  <rect x="0" y="0" width="111" height="79"/>
</clipPath>
<g id="surface11" clip-path="url(#clip3)">
<path style=" stroke:none;fill-rule:nonzero;fill:rgb(95.686275%,83.529412%,8.627451%);fill-opacity:1;" d="M 42.992188 3.253906 L 31.496094 30.996094 C 30.378906 33.691406 31.644531 36.785156 34.328125 37.90625 L 61.941406 49.453125 C 64.621094 50.578125 67.703125 49.304688 68.820312 46.613281 L 80.320312 18.867188 C 81.4375 16.175781 80.167969 13.078125 77.488281 11.957031 L 49.871094 0.40625 C 47.191406 -0.71875 44.109375 0.554688 42.992188 3.253906 Z M 62.710938 21.492188 L 63.566406 24.957031 L 58.945312 26.164062 L 61.363281 30.253906 L 58.257812 32.210938 L 55.691406 28.230469 L 52.554688 31.546875 L 49.914062 29.105469 L 52.9375 25.617188 L 48.6875 23.828125 L 50.070312 20.492188 L 54.320312 22.261719 L 54.601562 17.78125 L 58.203125 17.890625 L 58.203125 22.492188 Z M 62.710938 21.492188 "/>
</g>
<mask id="mask3">
  <g filter="url(#alpha)">
<rect x="0" y="0" width="111" height="79" style="fill:rgb(0%,0%,0%);fill-opacity:0.901961;stroke:none;"/>
  </g>
</mask>
<clipPath id="clip4">
  <rect x="0" y="0" width="111" height="79"/>
</clipPath>
<g id="surface14" clip-path="url(#clip4)">
<path style=" stroke:none;fill-rule:nonzero;fill:rgb(42.352941%,26.666667%,58.039216%);fill-opacity:1;" d="M 88.445312 32.785156 L 58.675781 35.707031 C 55.785156 36 53.675781 38.589844 53.96875 41.496094 L 56.871094 71.402344 C 57.164062 74.304688 59.730469 76.421875 62.617188 76.152344 L 92.386719 73.230469 C 95.28125 72.945312 97.394531 70.363281 97.109375 67.457031 L 94.207031 37.546875 C 94.074219 36.144531 93.394531 34.855469 92.3125 33.960938 C 91.230469 33.066406 89.835938 32.644531 88.445312 32.785156 Z M 86.515625 60.207031 L 65.851562 62.234375 L 65.339844 56.964844 L 86.011719 54.9375 Z M 85.714844 51.957031 L 65.042969 53.988281 L 64.53125 48.71875 L 85.203125 46.6875 Z M 85.714844 51.957031 "/>
</g>
<mask id="mask4">
  <g filter="url(#alpha)">
<rect x="0" y="0" width="111" height="79" style="fill:rgb(0%,0%,0%);fill-opacity:0.901961;stroke:none;"/>
  </g>
</mask>
<clipPath id="clip5">
  <rect x="0" y="0" width="111" height="79"/>
</clipPath>
<g id="surface17" clip-path="url(#clip5)">
<path style=" stroke:none;fill-rule:nonzero;fill:rgb(5.490196%,58.823529%,22.352941%);fill-opacity:1;" d="M 101.984375 0.0429688 L 72.238281 3.207031 C 69.359375 3.515625 67.269531 6.101562 67.5625 8.996094 L 70.710938 38.882812 C 71.019531 41.785156 73.609375 43.886719 76.496094 43.582031 L 106.238281 40.414062 C 107.628906 40.265625 108.898438 39.574219 109.777344 38.484375 C 110.65625 37.394531 111.066406 35.996094 110.917969 34.605469 L 107.765625 4.726562 C 107.453125 1.828125 104.867188 -0.265625 101.984375 0.0429688 Z M 98.832031 23.847656 L 80.28125 25.820312 L 79.648438 19.800781 L 98.195312 17.8125 Z M 98.832031 23.847656 "/>
</g>
</defs>
<g id="surface1">
<use xlink:href="#surface5" mask="url(#mask0)"/>
<use xlink:href="#surface8" mask="url(#mask1)"/>
<use xlink:href="#surface11" mask="url(#mask2)"/>
<use xlink:href="#surface14" mask="url(#mask3)"/>
<use xlink:href="#surface17" mask="url(#mask4)"/>
</g>
</svg>
